<svg width="280" height="163" viewBox="0 0 280 163" fill="none" xmlns="http://www.w3.org/2000/svg">
<path d="M228.454 130.962L227.374 132.043C226.952 132.465 226.952 133.149 227.374 133.572C227.796 133.994 228.481 133.994 228.903 133.572L229.984 132.491L231.064 133.572C231.487 133.994 232.171 133.994 232.593 133.572C233.016 133.149 233.016 132.465 232.593 132.043L231.514 130.962L232.593 129.881C233.016 129.459 233.016 128.774 232.593 128.352C232.382 128.141 232.106 128.035 231.829 128.035C231.553 128.035 231.275 128.141 231.064 128.352L229.984 129.433L228.903 128.352C228.693 128.141 228.415 128.035 228.139 128.035C227.862 128.035 227.586 128.141 227.374 128.352C226.952 128.774 226.952 129.459 227.374 129.881L228.454 130.962Z" fill="white"/>
<path d="M24.3973 114.927L23.3168 116.007C22.8944 116.43 22.8944 117.114 23.3168 117.537C23.7392 117.959 24.4239 117.959 24.8465 117.537L25.9266 116.456L27.0072 117.537C27.4295 117.959 28.1142 117.959 28.5364 117.537C28.9593 117.114 28.9593 116.43 28.5364 116.007L27.4564 114.927L28.5364 113.846C28.9593 113.424 28.9593 112.739 28.5364 112.317C28.3256 112.105 28.0486 112 27.7721 112C27.4951 112 27.2186 112.105 27.0072 112.317L25.9266 113.397L24.8465 112.317C24.6351 112.105 24.3583 112 24.0815 112C23.8047 112 23.528 112.105 23.3168 112.317C22.8944 112.739 22.8944 113.424 23.3168 113.846L24.3973 114.927Z" fill="#288CD5"/>
<path d="M225.397 86.9267L224.317 88.0073C223.894 88.4296 223.894 89.1143 224.317 89.5366C224.739 89.9588 225.424 89.9588 225.847 89.5366L226.927 88.4559L228.007 89.5366C228.429 89.9588 229.114 89.9588 229.536 89.5366C229.959 89.1143 229.959 88.4296 229.536 88.0073L228.456 86.9267L229.536 85.8461C229.959 85.4238 229.959 84.7391 229.536 84.3168C229.326 84.1054 229.049 83.9999 228.772 83.9999C228.495 83.9999 228.219 84.1054 228.007 84.3168L226.927 85.3974L225.847 84.3168C225.635 84.1054 225.358 83.9999 225.082 83.9999C224.805 83.9999 224.528 84.1054 224.317 84.3168C223.894 84.7391 223.894 85.4238 224.317 85.8461L225.397 86.9267Z" fill="#288CD5"/>
<path d="M46.4004 58.4607L45.32 59.5418C44.8977 59.9641 44.8977 60.6486 45.32 61.0709C45.7424 61.4933 46.4271 61.4933 46.8494 61.0709L47.93 59.9907L49.0104 61.0709C49.4328 61.4933 50.1175 61.4933 50.5399 61.0709C50.9622 60.6486 50.9622 59.9641 50.5399 59.5418L49.4594 58.4607L50.5399 57.3804C50.9622 56.9581 50.9622 56.2736 50.5399 55.8513C50.3287 55.6397 50.052 55.5343 49.7752 55.5343C49.4984 55.5343 49.2216 55.6397 49.0104 55.8513L47.93 56.9315L46.8494 55.8513C46.6382 55.6397 46.3614 55.5343 46.0847 55.5343C45.8079 55.5343 45.5312 55.6397 45.32 55.8513C44.8977 56.2736 44.8977 56.9581 45.32 57.3804L46.4004 58.4607Z" fill="white"/>
<path d="M176.46 2.92637L175.38 4.00759C174.957 4.42907 174.957 5.11396 175.38 5.53663C175.801 5.95931 176.486 5.95931 176.909 5.53663L177.989 4.45661L179.07 5.53663C179.493 5.95931 180.177 5.95931 180.599 5.53663C181.022 5.11396 181.022 4.42907 180.599 4.00759L179.519 2.92637L180.599 1.84635C181.022 1.42368 181.022 0.73878 180.599 0.317307C180.389 0.105372 180.112 4.29153e-06 179.835 4.29153e-06C179.558 4.29153e-06 179.281 0.105372 179.07 0.317307L177.989 1.39733L176.909 0.317307C176.698 0.105372 176.42 4.29153e-06 176.145 4.29153e-06C175.867 4.29153e-06 175.591 0.105372 175.38 0.317307C174.957 0.73878 174.957 1.42368 175.38 1.84635L176.46 2.92637Z" fill="white"/>
<path d="M156.676 159.905C157.224 159.905 157.671 159.458 157.671 158.909C157.671 158.359 157.224 157.912 156.676 157.912C156.126 157.912 155.679 158.359 155.679 158.909C155.679 159.458 156.126 159.905 156.676 159.905ZM156.676 155.749C158.417 155.749 159.834 157.167 159.834 158.909C159.834 160.651 158.417 162.068 156.676 162.068C154.933 162.068 153.516 160.651 153.516 158.909C153.516 157.167 154.933 155.749 156.676 155.749Z" fill="white"/>
<path d="M216.217 59.2363C216.767 59.2363 217.213 58.79 217.213 58.2412C217.213 57.6911 216.767 57.2448 216.217 57.2448C215.668 57.2448 215.222 57.6911 215.222 58.2412C215.222 58.79 215.668 59.2363 216.217 59.2363ZM216.217 55.0819C217.96 55.0819 219.376 56.4984 219.376 58.2412C219.376 59.9827 217.96 61.4004 216.217 61.4004C214.475 61.4004 213.058 59.9827 213.058 58.2412C213.058 56.4984 214.475 55.0819 216.217 55.0819Z" fill="white"/>
<path d="M83.9635 8.53356C84.5129 8.53356 84.9598 8.08643 84.9598 7.53746C84.9598 6.9885 84.5129 6.54136 83.9635 6.54136C83.4141 6.54136 82.9672 6.9885 82.9672 7.53746C82.9672 8.08643 83.4141 8.53356 83.9635 8.53356ZM83.9635 4.37826C85.7054 4.37826 87.1228 5.79575 87.1228 7.53746C87.1228 9.27918 85.7054 10.6967 83.9635 10.6967C82.2216 10.6967 80.8043 9.27918 80.8043 7.53746C80.8043 5.79575 82.2216 4.37826 83.9635 4.37826Z" fill="white"/>
<path d="M47.1592 107.174C47.7085 107.174 48.1554 106.727 48.1554 106.178C48.1554 105.628 47.7085 105.181 47.1592 105.181C46.6099 105.181 46.163 105.628 46.163 106.178C46.163 106.727 46.6099 107.174 47.1592 107.174ZM47.1592 103.018C48.9012 103.018 50.3183 104.436 50.3183 106.178C50.3183 107.919 48.9012 109.337 47.1592 109.337C45.4172 109.337 44 107.919 44 106.178C44 104.436 45.4172 103.018 47.1592 103.018Z" fill="white"/>
<path d="M258.397 29.9267L257.316 31.0074C256.895 31.4296 256.895 32.1142 257.316 32.5365C257.739 32.9588 258.423 32.9588 258.846 32.5365L259.927 31.456L261.007 32.5365C261.43 32.9588 262.114 32.9588 262.536 32.5365C262.958 32.1142 262.958 31.4296 262.536 31.0074L261.456 29.9267L262.536 28.8461C262.958 28.4238 262.958 27.7391 262.536 27.3168C262.325 27.1054 262.049 27.0001 261.771 27.0001C261.495 27.0001 261.218 27.1054 261.007 27.3168L259.927 28.3974L258.846 27.3168C258.635 27.1054 258.358 27.0001 258.082 27.0001C257.804 27.0001 257.528 27.1054 257.316 27.3168C256.895 27.7391 256.895 28.4238 257.316 28.8461L258.397 29.9267Z" fill="#D57028" fill-opacity="0.9"/>
<path d="M275.397 79.9267L274.317 81.0073C273.894 81.4296 273.894 82.1143 274.317 82.5366C274.739 82.9588 275.424 82.9588 275.847 82.5366L276.927 81.4559L278.007 82.5366C278.429 82.9588 279.114 82.9588 279.536 82.5366C279.959 82.1143 279.959 81.4296 279.536 81.0073L278.456 79.9267L279.536 78.8461C279.959 78.4238 279.959 77.7391 279.536 77.3168C279.326 77.1054 279.049 76.9999 278.772 76.9999C278.495 76.9999 278.219 77.1054 278.007 77.3168L276.927 78.3974L275.847 77.3168C275.635 77.1054 275.358 76.9999 275.082 76.9999C274.805 76.9999 274.528 77.1054 274.317 77.3168C273.894 77.7391 273.894 78.4238 274.317 78.8461L275.397 79.9267Z" fill="#D57028" fill-opacity="0.9"/>
<path d="M46.4004 58.4607L45.32 59.5418C44.8977 59.9641 44.8977 60.6486 45.32 61.0709C45.7424 61.4933 46.4271 61.4933 46.8494 61.0709L47.93 59.9907L49.0104 61.0709C49.4328 61.4933 50.1175 61.4933 50.5399 61.0709C50.9622 60.6486 50.9622 59.9641 50.5399 59.5418L49.4594 58.4607L50.5399 57.3804C50.9622 56.9581 50.9622 56.2736 50.5399 55.8513C50.3287 55.6397 50.052 55.5343 49.7752 55.5343C49.4984 55.5343 49.2216 55.6397 49.0104 55.8513L47.93 56.9315L46.8494 55.8513C46.6382 55.6397 46.3614 55.5343 46.0847 55.5343C45.8079 55.5343 45.5312 55.6397 45.32 55.8513C44.8977 56.2736 44.8977 56.9581 45.32 57.3804L46.4004 58.4607Z" fill="#D57028" fill-opacity="0.9"/>
<path d="M176.46 2.92637L175.38 4.00759C174.957 4.42907 174.957 5.11396 175.38 5.53663C175.801 5.95931 176.486 5.95931 176.909 5.53663L177.989 4.45661L179.07 5.53663C179.493 5.95931 180.177 5.95931 180.599 5.53663C181.022 5.11396 181.022 4.42907 180.599 4.00759L179.519 2.92637L180.599 1.84635C181.022 1.42368 181.022 0.73878 180.599 0.317307C180.389 0.105372 180.112 4.29153e-06 179.835 4.29153e-06C179.558 4.29153e-06 179.281 0.105372 179.07 0.317307L177.989 1.39733L176.909 0.317307C176.698 0.105372 176.42 4.29153e-06 176.145 4.29153e-06C175.867 4.29153e-06 175.591 0.105372 175.38 0.317307C174.957 0.73878 174.957 1.42368 175.38 1.84635L176.46 2.92637Z" fill="#D57028" fill-opacity="0.9"/>
<path d="M3.15998 88.1555C3.70862 88.1555 4.1555 87.7086 4.1555 87.1593C4.1555 86.6099 3.70862 86.163 3.15998 86.163C2.61046 86.163 2.16359 86.6099 2.16359 87.1593C2.16359 87.7086 2.61046 88.1555 3.15998 88.1555ZM3.15998 84C4.90147 84 6.31821 85.4174 6.31821 87.1593C6.31821 88.9011 4.90147 90.3185 3.15998 90.3185C1.41673 90.3185 0 88.9011 0 87.1593C0 85.4174 1.41673 84 3.15998 84Z" fill="#D57028" fill-opacity="0.9"/>
<path d="M216.217 59.2363C216.767 59.2363 217.213 58.79 217.213 58.2412C217.213 57.6911 216.767 57.2448 216.217 57.2448C215.668 57.2448 215.222 57.6911 215.222 58.2412C215.222 58.79 215.668 59.2363 216.217 59.2363ZM216.217 55.0819C217.96 55.0819 219.376 56.4984 219.376 58.2412C219.376 59.9827 217.96 61.4004 216.217 61.4004C214.475 61.4004 213.058 59.9827 213.058 58.2412C213.058 56.4984 214.475 55.0819 216.217 55.0819Z" fill="#D57028" fill-opacity="0.9"/>
<path d="M227.159 125.155C227.709 125.155 228.156 124.708 228.156 124.159C228.156 123.61 227.709 123.163 227.159 123.163C226.61 123.163 226.163 123.61 226.163 124.159C226.163 124.708 226.61 125.155 227.159 125.155ZM227.159 121C228.901 121 230.319 122.417 230.319 124.159C230.319 125.901 228.901 127.318 227.159 127.318C225.417 127.318 224 125.901 224 124.159C224 122.417 225.417 121 227.159 121Z" fill="#D57028" fill-opacity="0.9"/>
<path d="M79.1592 37.1553C79.7086 37.1553 80.1555 36.7081 80.1555 36.1592C80.1555 35.6102 79.7086 35.1631 79.1592 35.1631C78.6099 35.1631 78.163 35.6102 78.163 36.1592C78.163 36.7081 78.6099 37.1553 79.1592 37.1553ZM79.1592 33C80.9012 33 82.3185 34.4175 82.3185 36.1592C82.3185 37.9009 80.9012 39.3184 79.1592 39.3184C77.4174 39.3184 76 37.9009 76 36.1592C76 34.4175 77.4174 33 79.1592 33Z" fill="#D57028" fill-opacity="0.9"/>
<path d="M47.1592 107.174C47.7085 107.174 48.1554 106.727 48.1554 106.178C48.1554 105.628 47.7085 105.181 47.1592 105.181C46.6099 105.181 46.163 105.628 46.163 106.178C46.163 106.727 46.6099 107.174 47.1592 107.174ZM47.1592 103.018C48.9012 103.018 50.3183 104.436 50.3183 106.178C50.3183 107.919 48.9012 109.337 47.1592 109.337C45.4172 109.337 44 107.919 44 106.178C44 104.436 45.4172 103.018 47.1592 103.018Z" fill="#D57028" fill-opacity="0.9"/>
<path d="M157.182 61.8379V50.1027C157.182 47.8348 156.739 45.6356 155.864 43.5655C155.02 41.5663 153.81 39.7712 152.268 38.23C150.727 36.6888 148.932 35.4787 146.932 34.6335C144.863 33.7587 142.663 33.3155 140.395 33.3155C138.127 33.3155 135.927 33.7587 133.858 34.6335C131.857 35.4787 130.062 36.6888 128.521 38.23C126.98 39.7712 125.771 41.5663 124.926 43.5655C124.051 45.6356 123.608 47.8348 123.608 50.1027V61.8379H113.015V50.1302C113.015 35.0334 125.298 22.7502 140.395 22.7502C155.493 22.7502 167.775 35.0334 167.775 50.1302V61.8379H157.182Z" fill="#D57028" fill-opacity="0.9"/>
<path d="M135.746 118.697V101.971H145.042V118.697H135.746Z" fill="#D57028" fill-opacity="0.9"/>
<path d="M135.746 91.502V74.7691H145.042V91.502H135.746Z" fill="#D57028" fill-opacity="0.9"/>
<path d="M180.811 126.109C180.811 129.483 178.065 132.228 174.692 132.228H106.097C104.795 132.228 103.587 131.819 102.594 131.123C101.014 130.016 99.9783 128.181 99.9783 126.109V115.127C105.126 113.263 109.299 109.241 111.303 103.936H121.148L121.783 103.302L125.243 99.8414L126.753 101.352L128.677 103.275L129.312 103.91H135.518V118.925H146.149V74.5407H135.518V89.5627H110.979C110.157 87.661 109.04 85.9358 107.696 84.432C105.959 82.4915 103.843 80.9203 101.489 79.8205C100.996 79.5889 100.491 79.3797 99.9783 79.191V68.1857C99.9783 64.8117 102.723 62.0663 106.097 62.0663H174.692C176.763 62.0663 178.598 63.1008 179.706 64.6822C180.402 65.6748 180.811 66.8838 180.811 68.1857V126.109ZM181.843 67.3246C181.525 64.6648 179.751 62.4448 177.343 61.4878C176.523 61.1623 175.628 60.9828 174.692 60.9828H106.097C102.126 60.9828 98.8948 64.2139 98.8948 68.1857V80.8193L99.8138 81.1886C101.062 81.6896 102.255 82.3415 103.36 83.126C104.763 84.1238 106.008 85.3226 107.058 86.6897C107.201 86.8765 107.341 87.0662 107.475 87.258C108.211 88.3007 108.827 89.4209 109.311 90.5952L109.685 91.5012H136.602V75.6242H145.065V117.841H136.602V101.971H130.115L126.704 98.5605L125.243 97.0992L120.345 101.997H109.942L109.594 102.966C109.064 104.441 108.331 105.838 107.416 107.12C106.375 108.578 105.12 109.86 103.684 110.932C102.485 111.826 101.183 112.559 99.8138 113.109L98.8948 113.478V126.109C98.8948 127.045 99.074 127.94 99.4003 128.761C99.9736 130.203 101 131.418 102.302 132.228C103.174 132.771 104.17 133.133 105.237 133.261C105.519 133.294 105.806 133.312 106.097 133.312H174.692C176.084 133.312 177.385 132.915 178.488 132.228C180.531 130.956 181.894 128.689 181.894 126.109V68.1857C181.894 67.8949 181.877 67.6072 181.843 67.3246Z" fill="white"/>
<path d="M180.811 68.1859V126.109C180.811 129.483 178.066 132.228 174.691 132.228H106.097C102.723 132.228 99.9783 129.483 99.9783 126.109V115.127C105.126 113.263 109.299 109.241 111.303 103.936H121.147L121.783 103.302L125.243 99.8413L128.677 103.275L129.312 103.91H135.518V118.925H146.149V74.5401H135.518V89.5626H110.98C108.872 84.6903 104.835 80.9744 99.9783 79.1905V68.1859C99.9783 64.8117 102.723 62.0659 106.097 62.0659H174.691C178.066 62.0659 180.811 64.8117 180.811 68.1859Z" fill="white"/>
<path d="M93.5846 97.1475C93.5846 100.913 90.522 103.975 86.757 103.975C82.9927 103.975 79.9294 100.913 79.9294 97.1475C79.9294 93.3825 82.9927 90.3193 86.757 90.3193C90.522 90.3193 93.5846 93.3825 93.5846 97.1475Z" fill="#DFDFDD"/>
<path d="M97.8106 113.536C96.4033 113.909 94.93 114.106 93.4171 114.106C89.1251 114.106 85.2003 112.503 82.2104 109.864C78.6856 106.755 76.4588 102.206 76.4588 97.1476C76.4588 87.7972 84.0664 80.1892 93.4171 80.1892C94.9229 80.1892 96.3986 80.3909 97.8106 80.7729C101.046 81.6473 103.955 83.4651 106.157 85.9627C107.517 87.5042 108.608 89.3037 109.341 91.3002C109.435 91.5575 109.682 91.7307 109.956 91.7307H143.959V101.743H130.209L127.217 98.751L125.707 97.2405C125.579 97.1127 125.411 97.0483 125.243 97.0483C125.075 97.0483 124.907 97.1127 124.778 97.2405L120.25 101.77H110.227C109.939 101.77 109.688 101.955 109.601 102.229C107.825 107.891 103.334 112.071 97.8106 113.536ZM110.253 90.6467C108.259 85.4878 104.011 81.6052 98.8946 79.9637C98.8549 79.951 98.8144 79.9383 98.7739 79.9264C98.4554 79.8263 98.1346 79.735 97.8106 79.6532C96.3938 79.2942 94.9199 79.106 93.4171 79.106C83.469 79.106 75.3752 87.1992 75.3752 97.1476C75.3752 99.0258 75.664 100.839 76.1993 102.542C78.1462 108.744 83.3578 113.513 89.8104 114.827C90.9759 115.065 92.1824 115.189 93.4171 115.189C94.9264 115.189 96.3986 115.006 97.8106 114.656C98.1767 114.564 98.5372 114.463 98.8946 114.35C104.304 112.643 108.678 108.45 110.539 102.853H120.699L125.243 98.3087L125.987 99.0536L129.76 102.827H145.042V90.6467H110.253Z" fill="#DFDFDD"/>
<path d="M79.9291 97.1475C79.9291 93.3825 82.9922 90.3191 86.7571 90.3191C89.0244 90.3191 91.0362 91.4302 92.2784 93.136C93.0997 94.2629 93.5846 95.6497 93.5846 97.1475C93.5846 100.913 90.522 103.975 86.7571 103.975C85.2595 103.975 83.8725 103.491 82.7457 102.67C81.0395 101.427 79.9291 99.4148 79.9291 97.1475ZM109.956 91.7303C109.682 91.7303 109.435 91.5578 109.341 91.3003C108.607 89.304 107.517 87.5037 106.157 85.9634C103.955 83.4654 101.047 81.647 97.8107 80.7729C96.3979 80.391 94.9229 80.1894 93.4171 80.1894C84.0664 80.1894 76.4588 87.7967 76.4588 97.1475C76.4588 102.206 78.6856 106.755 82.2103 109.865C85.2003 112.503 89.1251 114.106 93.4171 114.106C94.93 114.106 96.4034 113.909 97.8107 113.536C103.334 112.072 107.825 107.891 109.602 102.229C109.688 101.954 109.939 101.769 110.227 101.769H120.25L124.779 97.2405C124.907 97.1121 125.074 97.0483 125.243 97.0483C125.41 97.0483 125.579 97.1121 125.707 97.2405L127.217 98.7509L130.209 101.743H143.959V91.7303H109.956Z" fill="#DFDFDD"/>
<path d="M86.7569 102.892C83.5897 102.892 81.0127 100.315 81.0127 97.1477C81.0127 93.9799 83.5897 91.4029 86.7569 91.4029C89.9247 91.4029 92.501 93.9799 92.501 97.1477C92.501 100.315 89.9247 102.892 86.7569 102.892Z" fill="white"/>
<path d="M180.967 134.395H102.844C102.161 133.914 101.554 133.332 101.044 132.671C100.933 132.528 100.826 132.38 100.725 132.228C100.04 131.209 99.5759 130.031 99.4002 128.761C99.9736 130.203 101 131.418 102.302 132.228C103.174 132.771 104.17 133.133 105.237 133.261C105.966 133.568 106.767 133.739 107.608 133.739H176.202C177.739 133.739 179.148 133.168 180.223 132.228C181.508 131.105 182.322 129.456 182.322 127.62V69.696C182.322 68.8553 182.15 68.0534 181.843 67.324C181.525 64.6641 179.751 62.4455 177.343 61.4881C178.801 61.6899 180.139 62.2721 181.254 63.1318C183.219 64.6483 184.489 67.0266 184.489 69.696V127.62C184.489 129.324 183.971 130.91 183.086 132.228C182.517 133.074 181.798 133.81 180.967 134.395ZM99.9813 126.292C99.9813 126.291 99.9813 126.29 99.9813 126.29V126.292ZM94.9279 117.783C89.2718 117.783 84.1809 115.315 80.676 111.399C78.4709 108.936 76.8936 105.898 76.1996 102.542C78.1465 108.743 83.358 113.513 89.8106 114.827C91.4259 115.34 93.145 115.616 94.9279 115.616C95.9077 115.616 96.8717 115.533 97.8113 115.374C98.1762 115.312 98.5375 115.238 98.8948 115.153V117.374C98.537 117.449 98.1755 117.514 97.8113 117.569C96.8683 117.71 95.9054 117.783 94.9279 117.783ZM145.065 105.42H145.042V103.253H145.065V105.42ZM145.065 93.2405H145.042V91.0735H145.065V93.2405ZM110.967 89.5348C110.967 89.5337 110.967 89.5337 110.967 89.5337V89.5348ZM109.855 87.3667C109.854 87.3667 109.854 87.3667 109.854 87.3667H109.855ZM109.81 87.2921C109.807 87.2879 109.805 87.2826 109.802 87.2784C109.805 87.2837 109.807 87.2879 109.81 87.2921ZM109.786 87.2532C109.174 86.2453 108.473 85.3016 107.696 84.4324C107.696 84.4324 107.697 84.4335 107.697 84.4335C108.474 85.3016 109.174 86.2453 109.786 87.2532ZM98.8948 79.9638C98.855 79.9501 98.8145 79.9375 98.7742 79.926C98.8145 79.9344 98.855 79.9428 98.8948 79.9512V79.9638ZM101.489 79.8209C101.327 79.7452 101.165 79.6706 101.001 79.6002C101.165 79.6706 101.327 79.7442 101.489 79.8198V79.8209ZM100.495 79.3889C100.491 79.3879 100.487 79.3858 100.483 79.3837C100.487 79.3858 100.491 79.3868 100.495 79.3889ZM145.065 78.2182H145.042V76.0511H145.065V78.2182ZM177.172 62.5916C177.171 62.5906 177.17 62.5906 177.169 62.5906C177.17 62.5906 177.171 62.5916 177.172 62.5916ZM177.147 62.5801C176.511 62.3005 175.819 62.1261 175.095 62.0788C175.819 62.1261 176.512 62.3005 177.147 62.5801ZM174.985 62.0735C174.983 62.0735 174.981 62.0735 174.979 62.0725C174.981 62.0725 174.983 62.0735 174.985 62.0735ZM174.912 62.0704C174.911 62.0704 174.909 62.0704 174.908 62.0693C174.91 62.0704 174.911 62.0704 174.912 62.0704ZM174.887 62.0693C174.885 62.0693 174.884 62.0693 174.883 62.0693C174.884 62.0693 174.886 62.0693 174.887 62.0693ZM174.756 62.0672C174.755 62.0672 174.753 62.0672 174.752 62.0662C174.753 62.0672 174.754 62.0672 174.756 62.0672ZM174.718 62.0662C174.716 62.0662 174.716 62.0662 174.714 62.0662C174.715 62.0662 174.717 62.0662 174.718 62.0662ZM170.368 60.9826H168.201V51.6407C168.201 49.0512 167.825 46.5468 167.124 44.1811C164.961 34.4577 157.612 26.665 148.141 23.8663C153.13 24.9855 157.629 27.4185 161.252 30.7826C166.856 35.9837 170.368 43.4097 170.368 51.6407V60.9826ZM126.201 60.9826H124.034V51.6134C124.034 49.2004 124.506 46.8589 125.438 44.654C126.338 42.5259 127.625 40.6152 129.266 38.9747C130.906 37.3342 132.817 36.0457 134.946 35.1461C137.149 34.215 139.491 33.7431 141.905 33.7431C143.121 33.7431 144.319 33.8629 145.491 34.1015H145.492C145.979 34.257 146.459 34.4336 146.932 34.6343C148.932 35.4793 150.727 36.6889 152.268 38.2296C153.809 39.7713 155.019 41.5664 155.864 43.5653C156.306 44.612 156.639 45.6913 156.858 46.7969C156.858 46.7948 156.857 46.7938 156.857 46.7917C156.716 46.3545 156.557 45.9236 156.377 45.498C155.587 43.6283 154.455 41.9489 153.012 40.507C152.759 40.2537 152.499 40.0099 152.232 39.7766C150.975 38.6783 149.562 37.7945 148.021 37.1429C146.086 36.3242 144.027 35.9101 141.905 35.9101C139.782 35.9101 137.725 36.3242 135.789 37.1429C133.919 37.9332 132.24 39.0651 130.798 40.507C129.356 41.9489 128.224 43.6283 127.434 45.498C126.616 47.4338 126.201 49.4916 126.201 51.6134V60.9826Z" fill="#C7C6C4"/>
<path d="M159.776 60.9827H157.608V51.6138C157.608 49.9604 157.356 48.3449 156.858 46.7969C156.638 45.6922 156.306 44.6127 155.863 43.566C155.019 41.5675 153.809 39.7716 152.267 38.23C150.726 36.6895 148.932 35.4792 146.932 34.634C146.458 34.4346 145.978 34.2573 145.492 34.1022C146.645 34.3364 147.772 34.6846 148.864 35.1468C150.664 35.9065 152.308 36.9459 153.764 38.2395C154.03 38.4759 154.291 38.7217 154.544 38.975C156.185 40.6157 157.472 42.5267 158.372 44.655C159.303 46.8592 159.776 49.1996 159.776 51.6138V59.899V60.9827ZM115.609 60.9827H113.441V51.6412C113.441 35.9466 126.21 23.178 141.904 23.178C144.042 23.178 146.126 23.4143 148.131 23.8649C148.134 23.8649 148.137 23.866 148.14 23.867C157.611 26.6653 164.961 34.4578 167.123 44.1812C167.122 44.178 167.122 44.1748 167.12 44.1717C165.755 39.569 163.161 35.4897 159.72 32.3158C155.031 27.9896 148.771 25.3453 141.904 25.3453C127.405 25.3453 115.609 37.1411 115.609 51.6412V60.9827Z" fill="#DE3E3E"/>
<path d="M139.196 117.841H137.028V105.42H136.602V103.253H145.042V105.42H143.959H139.196V117.613V117.841Z" fill="#DE3E3E"/>
<path d="M139.196 90.6466H137.028V76.0508H145.042V78.2181H143.959H139.196V90.6466Z" fill="#DE3E3E"/>
<path d="M105.237 133.261C104.17 133.133 103.174 132.771 102.302 132.228C101 131.417 99.9737 130.203 99.4004 128.761C99.3488 128.388 99.3219 128.007 99.3219 127.62V117.28C99.1801 117.313 99.0379 117.344 98.895 117.374V115.153C99.0379 115.119 99.1801 115.083 99.3219 115.046C99.5427 114.987 99.7618 114.925 99.9784 114.857C105.199 113.246 109.407 109.175 111.113 103.739C111.199 103.464 111.45 103.279 111.738 103.279H121.761L125.827 99.2145L125.988 99.0529L129.761 102.826H131.293L131.521 103.054L131.72 103.253H136.602V105.42H135.518V103.909H129.312L128.678 103.275L126.754 101.352L125.244 99.8412L121.783 103.302L121.148 103.936H111.304C109.299 109.241 105.126 113.263 99.9784 115.127V126.109C99.9784 126.113 99.9784 126.117 99.9784 126.12C99.9784 126.122 99.9784 126.123 99.9784 126.124C99.9784 126.126 99.9784 126.129 99.9784 126.132C99.9784 126.133 99.9784 126.134 99.9784 126.136C99.9784 126.138 99.9784 126.141 99.9784 126.143C99.9784 126.144 99.9784 126.146 99.9784 126.147C99.9784 126.15 99.9784 126.153 99.9784 126.156C99.9784 126.157 99.9784 126.157 99.9784 126.158C99.9784 126.162 99.9784 126.165 99.9784 126.169C99.979 126.17 99.979 126.171 99.979 126.173C99.979 126.175 99.979 126.178 99.979 126.181C99.979 126.182 99.979 126.183 99.979 126.184C99.979 126.187 99.979 126.189 99.979 126.192C99.979 126.193 99.979 126.194 99.979 126.195C99.979 126.199 99.979 126.202 99.979 126.205C99.979 126.205 99.979 126.206 99.979 126.206C99.9796 126.214 99.9797 126.222 99.9797 126.229C99.9797 126.23 99.9797 126.231 99.9797 126.232C99.9797 126.235 99.9797 126.238 99.9797 126.241C99.9797 126.242 99.9797 126.243 99.9803 126.244C99.9803 126.247 99.9803 126.25 99.9803 126.253C99.9803 126.254 99.9803 126.255 99.9803 126.255C99.9803 126.263 99.9808 126.271 99.9808 126.278V126.279C99.9808 126.283 99.9808 126.286 99.9814 126.29C99.9814 126.29 99.9814 126.291 99.9814 126.291C99.9814 126.295 99.9814 126.299 99.9814 126.303C99.9814 126.303 99.9814 126.303 99.9814 126.303C99.982 126.315 99.982 126.327 99.9826 126.339C99.9826 126.339 99.9826 126.339 99.9826 126.339C99.9831 126.343 99.9831 126.347 99.9831 126.351V126.351C100.06 128.324 101.076 130.06 102.595 131.124C102.879 131.531 103.214 131.901 103.587 132.228C104.075 132.654 104.631 133.005 105.237 133.261ZM146.149 118.924H137.029V117.841H139.196V118.268H145.47V105.42H145.066V103.253H145.47V93.2403H145.066V91.0728H145.47V78.2176H145.066V76.0502H146.149V118.924ZM112.299 90.6464H110.253C108.26 85.4876 104.011 81.6048 98.895 79.9627V79.9514C99.0379 79.981 99.1801 80.0137 99.3219 80.0473V69.6961C99.3219 65.1268 103.039 61.4091 107.608 61.4091H113.442V60.9828H115.609V61.4091H124.034V60.9828H126.201V61.4091H157.609V60.9828H159.776V61.4091H168.201V60.9828H170.368V61.4091H176.202C176.59 61.4091 176.97 61.4367 177.344 61.4877C179.752 62.4444 181.525 64.6637 181.843 67.3247C181.392 66.2558 180.646 65.341 179.707 64.6821C179.079 63.7866 178.219 63.0665 177.213 62.6096C177.21 62.6086 177.207 62.6065 177.204 62.6055C177.203 62.6055 177.203 62.6045 177.203 62.6045C177.199 62.6035 177.196 62.6014 177.193 62.6004C177.193 62.6004 177.193 62.6004 177.192 62.6004C177.189 62.5994 177.185 62.5973 177.182 62.5963C177.182 62.5953 177.181 62.5953 177.181 62.5953C177.178 62.5943 177.175 62.5933 177.172 62.5912C177.171 62.5912 177.17 62.5902 177.169 62.5902C177.167 62.5892 177.165 62.5882 177.163 62.5871C177.162 62.5861 177.16 62.5861 177.159 62.5851C177.157 62.5851 177.156 62.5841 177.155 62.5841C177.153 62.582 177.15 62.582 177.149 62.581C177.148 62.581 177.148 62.58 177.147 62.58C176.512 62.3005 175.82 62.1261 175.095 62.0792H175.094C175.091 62.0792 175.089 62.0792 175.085 62.0782C175.084 62.0782 175.084 62.0782 175.083 62.0782C175.08 62.0782 175.077 62.0782 175.075 62.0772C175.074 62.0772 175.074 62.0772 175.074 62.0772C175.065 62.0772 175.056 62.0762 175.047 62.0762C175.047 62.0762 175.046 62.0762 175.045 62.0762C175.043 62.0762 175.04 62.0762 175.038 62.0751C175.035 62.0751 175.035 62.0751 175.034 62.0751C175.031 62.0751 175.029 62.0751 175.026 62.0751C175.026 62.0751 175.025 62.0751 175.023 62.0751C175.016 62.0741 175.008 62.0741 175 62.0731C174.999 62.0731 174.998 62.0731 174.996 62.0731C174.994 62.0731 174.992 62.0731 174.99 62.0731C174.988 62.0731 174.987 62.0731 174.984 62.0731C174.983 62.0731 174.98 62.0721 174.979 62.0721C174.977 62.0721 174.975 62.0721 174.974 62.0721C174.972 62.0721 174.97 62.0721 174.968 62.0721C174.966 62.0721 174.964 62.0721 174.963 62.0721C174.96 62.0721 174.956 62.0721 174.953 62.0711C174.951 62.0711 174.949 62.0711 174.948 62.0711C174.945 62.0711 174.944 62.0711 174.942 62.0711C174.94 62.0711 174.939 62.0711 174.937 62.0711C174.934 62.0711 174.932 62.0711 174.93 62.0711C174.928 62.0711 174.927 62.0711 174.925 62.07C174.923 62.07 174.921 62.07 174.92 62.07C174.917 62.07 174.915 62.07 174.913 62.07C174.912 62.07 174.911 62.07 174.909 62.069C174.905 62.069 174.902 62.069 174.898 62.069C174.897 62.069 174.896 62.069 174.895 62.069C174.893 62.069 174.89 62.069 174.888 62.069C174.886 62.069 174.885 62.069 174.883 62.069C174.88 62.069 174.878 62.069 174.876 62.069C174.874 62.069 174.873 62.068 174.871 62.068C174.869 62.068 174.866 62.068 174.864 62.068C174.863 62.068 174.862 62.068 174.86 62.068C174.858 62.068 174.856 62.068 174.853 62.068C174.85 62.068 174.848 62.068 174.846 62.068C174.843 62.068 174.841 62.068 174.839 62.068C174.838 62.068 174.836 62.068 174.834 62.068C174.833 62.068 174.829 62.068 174.827 62.068C174.826 62.067 174.824 62.067 174.822 62.067C174.82 62.067 174.818 62.067 174.815 62.067C174.814 62.067 174.813 62.067 174.811 62.067C174.809 62.067 174.806 62.067 174.803 62.067C174.802 62.067 174.802 62.067 174.801 62.067C174.798 62.067 174.794 62.067 174.79 62.067C174.789 62.067 174.788 62.067 174.787 62.067C174.784 62.067 174.782 62.067 174.778 62.067C174.777 62.067 174.775 62.067 174.774 62.067C174.771 62.067 174.77 62.067 174.767 62.067C174.766 62.067 174.765 62.067 174.763 62.067C174.761 62.067 174.758 62.067 174.756 62.067C174.754 62.067 174.753 62.067 174.752 62.066C174.748 62.066 174.745 62.066 174.741 62.066C174.74 62.066 174.74 62.066 174.739 62.066C174.736 62.066 174.734 62.066 174.731 62.066C174.728 62.066 174.727 62.066 174.726 62.066C174.723 62.066 174.72 62.066 174.718 62.066C174.717 62.066 174.715 62.066 174.714 62.066C174.712 62.066 174.709 62.066 174.707 62.066C174.706 62.066 174.704 62.066 174.703 62.066C174.7 62.066 174.696 62.066 174.692 62.066H106.097C102.724 62.066 99.9784 64.8106 99.9784 68.1855V79.1906C100.145 79.2518 100.311 79.315 100.476 79.3813C100.478 79.3823 100.48 79.3833 100.483 79.3844C100.487 79.3854 100.491 79.3874 100.495 79.3884C100.501 79.3905 100.507 79.3935 100.513 79.3966C100.514 79.3966 100.516 79.3976 100.518 79.3976C100.674 79.4609 100.829 79.5251 100.984 79.5924C100.989 79.5945 100.994 79.5975 100.999 79.5985C100.999 79.5996 101.001 79.5996 101.001 79.5996C101.165 79.671 101.327 79.7444 101.489 79.8199V80.7011C103.778 81.5425 105.886 82.8134 107.696 84.432C108.473 85.301 109.175 86.2444 109.787 87.2531C109.79 87.2592 109.794 87.2654 109.797 87.2705C109.798 87.2735 109.8 87.2756 109.802 87.2776C109.805 87.2827 109.807 87.2878 109.81 87.2919C109.813 87.297 109.816 87.3021 109.819 87.3082C109.821 87.3102 109.822 87.3123 109.824 87.3153C109.829 87.3235 109.833 87.3317 109.839 87.3398C109.839 87.3398 109.839 87.3408 109.84 87.3419C109.845 87.35 109.85 87.3582 109.855 87.3663C109.855 87.3663 109.855 87.3663 109.855 87.3674C110.269 88.0599 110.641 88.783 110.967 89.5337C110.967 89.5337 110.967 89.5337 110.967 89.5347C110.971 89.5439 110.976 89.5531 110.98 89.5622H111.756C111.908 89.8437 112.053 90.1283 112.192 90.418C112.228 90.4934 112.264 90.5699 112.299 90.6464Z" fill="#DFDFDD"/>
<path d="M102.595 131.124C101.076 130.06 100.06 128.324 99.9833 126.351V126.351C99.9833 126.347 99.9832 126.343 99.9826 126.339C99.9826 126.339 99.9826 126.339 99.9826 126.339C99.982 126.327 99.982 126.315 99.9814 126.303C99.9814 126.303 99.9814 126.303 99.9814 126.303C99.9814 126.299 99.9814 126.295 99.9814 126.291V126.29C99.9808 126.286 99.9808 126.283 99.9808 126.279V126.278C99.9808 126.271 99.9803 126.263 99.9803 126.255C99.9803 126.255 99.9803 126.254 99.9803 126.253C99.9803 126.25 99.9803 126.247 99.9803 126.244C99.9797 126.243 99.9797 126.242 99.9797 126.241C99.9797 126.238 99.9797 126.235 99.9797 126.232C99.9797 126.231 99.9797 126.23 99.9797 126.229C99.9797 126.222 99.9797 126.214 99.9791 126.207C99.9791 126.206 99.9791 126.205 99.9791 126.205C99.9791 126.202 99.9791 126.199 99.9791 126.195C99.9791 126.194 99.9791 126.193 99.9791 126.192C99.9791 126.189 99.9791 126.187 99.9791 126.184C99.9791 126.183 99.9791 126.182 99.9791 126.181C99.9791 126.178 99.9791 126.175 99.9791 126.172C99.9791 126.171 99.9791 126.17 99.9785 126.169C99.9785 126.165 99.9785 126.162 99.9785 126.158C99.9785 126.157 99.9785 126.157 99.9785 126.156C99.9785 126.153 99.9785 126.15 99.9785 126.147C99.9785 126.146 99.9785 126.144 99.9785 126.143C99.9785 126.141 99.9785 126.138 99.9785 126.136C99.9785 126.134 99.9785 126.133 99.9785 126.131C99.9785 126.129 99.9785 126.126 99.9785 126.124C99.9785 126.123 99.9785 126.122 99.9785 126.12C99.9785 126.117 99.9785 126.113 99.9785 126.109V115.127C105.126 113.263 109.299 109.241 111.304 103.936H121.148L121.783 103.302L125.243 99.8412L126.754 101.352L123.294 104.812L122.658 105.446H112.814C110.809 110.751 106.637 114.774 101.489 116.637V127.62C101.489 128.922 101.898 130.13 102.594 131.123C102.594 131.123 102.595 131.123 102.595 131.124ZM147.66 120.435H137.03V118.924H146.15V76.0508H147.66V120.435ZM135.519 105.42H130.823L130.187 104.786L128.677 103.275L129.312 103.909H135.519V105.42ZM111.756 89.5623H110.98C110.976 89.5533 110.972 89.5442 110.967 89.5341C110.641 88.783 110.269 88.0601 109.855 87.3675L109.855 87.3664C109.85 87.3584 109.845 87.3503 109.84 87.3413C109.839 87.3413 109.839 87.3403 109.839 87.3393C109.833 87.3312 109.829 87.3232 109.824 87.3151C109.822 87.3121 109.821 87.3101 109.82 87.308C109.816 87.303 109.813 87.297 109.81 87.2919C109.807 87.2869 109.805 87.2829 109.802 87.2778C109.8 87.2758 109.798 87.2728 109.797 87.2708C109.794 87.2648 109.79 87.2587 109.787 87.2537C109.175 86.2449 108.474 85.3014 107.697 84.4336C109.317 85.8824 110.699 87.6121 111.756 89.5623ZM101.489 79.8193C101.327 79.7438 101.165 79.6713 101.001 79.5998C101.001 79.5998 100.999 79.5998 100.999 79.5988C100.994 79.5968 100.989 79.5948 100.984 79.5928C100.83 79.5253 100.674 79.4609 100.518 79.3974C100.516 79.3974 100.514 79.3964 100.513 79.3964C100.507 79.3934 100.501 79.3904 100.495 79.3884C100.491 79.3864 100.487 79.3854 100.483 79.3844C100.48 79.3834 100.478 79.3823 100.476 79.3813C100.311 79.3149 100.145 79.2525 99.9785 79.191V68.1855C99.9785 64.8106 102.724 62.066 106.097 62.066H174.692C174.696 62.066 174.7 62.066 174.703 62.066C174.704 62.066 174.706 62.066 174.707 62.066C174.709 62.066 174.712 62.066 174.714 62.066C174.716 62.066 174.717 62.066 174.718 62.066C174.721 62.066 174.724 62.066 174.726 62.066C174.727 62.066 174.728 62.066 174.73 62.066C174.733 62.066 174.736 62.066 174.739 62.066H174.74C174.745 62.066 174.748 62.066 174.752 62.066C174.753 62.066 174.754 62.066 174.756 62.066C174.758 62.066 174.76 62.066 174.763 62.066C174.764 62.066 174.766 62.066 174.767 62.066C174.77 62.066 174.771 62.066 174.775 62.066C174.776 62.066 174.778 62.066 174.779 62.066C174.782 62.066 174.784 62.066 174.787 62.066C174.788 62.066 174.789 62.066 174.79 62.066C174.794 62.066 174.798 62.067 174.801 62.067C174.802 62.067 174.803 62.067 174.803 62.067C174.806 62.067 174.809 62.067 174.812 62.067C174.814 62.067 174.815 62.067 174.816 62.067C174.819 62.067 174.821 62.067 174.823 62.067C174.825 62.067 174.826 62.067 174.828 62.068C174.83 62.068 174.832 62.068 174.834 62.068C174.836 62.068 174.837 62.068 174.839 62.068C174.841 62.068 174.843 62.068 174.846 62.068C174.848 62.068 174.85 62.068 174.853 62.068C174.856 62.068 174.858 62.068 174.86 62.068C174.862 62.068 174.863 62.068 174.864 62.068C174.867 62.068 174.869 62.068 174.871 62.068C174.873 62.068 174.874 62.069 174.876 62.069C174.878 62.069 174.881 62.069 174.883 62.069C174.884 62.069 174.885 62.069 174.887 62.069C174.889 62.069 174.892 62.069 174.895 62.069C174.896 62.069 174.897 62.069 174.898 62.069C174.901 62.069 174.905 62.069 174.908 62.069C174.91 62.07 174.911 62.07 174.913 62.07C174.915 62.07 174.917 62.07 174.92 62.07C174.922 62.07 174.924 62.07 174.926 62.07C174.928 62.0711 174.929 62.0711 174.931 62.0711C174.933 62.0711 174.935 62.0711 174.937 62.0711C174.939 62.0711 174.94 62.0711 174.942 62.0711C174.944 62.0711 174.946 62.0711 174.948 62.0711C174.95 62.0711 174.951 62.0711 174.954 62.0711C174.957 62.0721 174.96 62.0721 174.964 62.0721C174.965 62.0721 174.966 62.0721 174.968 62.0721C174.97 62.0721 174.972 62.0721 174.974 62.0721C174.976 62.0721 174.978 62.0721 174.979 62.0721C174.982 62.0731 174.983 62.0731 174.985 62.0731C174.986 62.0731 174.988 62.0731 174.99 62.0731C174.992 62.0731 174.994 62.0731 174.996 62.0731C174.997 62.0731 174.998 62.0731 175 62.0731C175.008 62.0741 175.015 62.0741 175.023 62.0751C175.025 62.0751 175.026 62.0751 175.026 62.0751C175.029 62.0751 175.032 62.0751 175.034 62.0751C175.035 62.0751 175.036 62.0751 175.037 62.0751C175.04 62.0761 175.042 62.0761 175.044 62.0761C175.046 62.0761 175.046 62.0761 175.047 62.0761C175.055 62.0761 175.065 62.0771 175.075 62.0771C175.075 62.0771 175.075 62.0771 175.076 62.0771C175.078 62.0781 175.081 62.0781 175.084 62.0781C175.084 62.0781 175.085 62.0781 175.086 62.0781C175.088 62.0791 175.091 62.0791 175.094 62.0791H175.095C175.821 62.1264 176.511 62.3006 177.147 62.5805C177.148 62.5805 177.148 62.5805 177.149 62.5805C177.151 62.5815 177.153 62.5825 177.155 62.5835C177.156 62.5845 177.158 62.5845 177.159 62.5855C177.161 62.5855 177.162 62.5865 177.164 62.5876C177.165 62.5886 177.167 62.5886 177.169 62.5906C177.171 62.5906 177.172 62.5906 177.173 62.5916C177.176 62.5926 177.179 62.5946 177.182 62.5956C177.186 62.5966 177.189 62.5986 177.192 62.5996C177.193 62.5996 177.193 62.6006 177.193 62.6006C177.196 62.6016 177.199 62.6037 177.203 62.6047C177.203 62.6047 177.203 62.6057 177.204 62.6057C177.207 62.6067 177.21 62.6087 177.213 62.6097C178.219 63.0658 179.079 63.7867 179.707 64.6817C179.706 64.6817 179.706 64.6817 179.706 64.6817C178.713 63.985 177.505 63.5763 176.202 63.5763H107.608C104.234 63.5763 101.489 66.3219 101.489 69.6957V79.8193Z" fill="#DFDFDD"/>
<path d="M89.8104 114.827C83.3578 113.513 78.1462 108.744 76.1994 102.542C75.9387 101.287 75.8023 99.989 75.8023 98.658C75.8023 88.1117 84.3822 79.5324 94.9276 79.5324C95.9023 79.5324 96.8656 79.6079 97.8106 79.7532C98.1346 79.8024 98.4555 79.8604 98.7739 79.9263C98.8144 79.9382 98.8549 79.9509 98.8946 79.9636C104.011 81.6052 108.259 85.4878 110.253 90.6466H112.299C112.363 90.788 112.428 90.9301 112.49 91.0739H137.028V90.6466H139.196V91.0739H145.042V93.2411H143.959V91.7306H110.411C110.377 91.6536 110.342 91.5774 110.307 91.5019C109.575 89.9327 108.615 88.5072 107.475 87.2587C107.059 86.8021 106.619 86.3693 106.157 85.9627C103.955 83.4651 101.046 81.6473 97.8106 80.7729C96.3986 80.3909 94.9229 80.1892 93.4171 80.1892C84.0664 80.1892 76.4588 87.7972 76.4588 97.1476C76.4588 102.206 78.6856 106.755 82.2104 109.864C84.2246 112.148 86.8414 113.885 89.8104 114.827ZM131.292 102.827H129.76L125.987 99.0535L126.289 98.751C126.405 98.635 126.553 98.5715 126.704 98.5604C126.72 98.5596 126.737 98.5588 126.754 98.5588C126.921 98.5588 127.089 98.6231 127.217 98.751L130.209 101.743L131.292 102.827Z" fill="#BFBEBC"/>
<path d="M82.2103 109.865C78.6856 106.755 76.4588 102.206 76.4588 97.1475C76.4588 87.7967 84.0664 80.1894 93.4171 80.1894C94.9229 80.1894 96.3979 80.391 97.8107 80.7729C101.047 81.647 103.955 83.4654 106.157 85.9634C104.203 84.2387 101.863 82.9701 99.3211 82.2833C97.9091 81.9022 96.4333 81.6998 94.9276 81.6998C85.5769 81.6998 77.9694 89.3071 77.9694 98.658C77.9694 102.95 79.5718 106.875 82.2103 109.865ZM143.959 93.2407H111.467C111.193 93.2407 110.946 93.0683 110.852 92.8107C110.717 92.4438 110.57 92.0839 110.411 91.7303H143.959V93.2407Z" fill="#BFBEBC"/>
<path d="M86.6537 103.975C86.6531 103.975 86.6518 103.975 86.6506 103.975C86.6518 103.975 86.6525 103.975 86.6537 103.975ZM93.5848 97.1122C93.5848 97.1122 93.5848 97.111 93.5848 97.1104C93.5848 97.1116 93.5848 97.1122 93.5848 97.1122ZM93.5848 97.096C93.5848 97.0948 93.5848 97.0942 93.5848 97.0936C93.5848 97.0942 93.5848 97.0954 93.5848 97.096ZM93.5842 97.0435C93.5842 97.0429 93.5842 97.0417 93.5842 97.0411C93.5842 97.0417 93.5842 97.0423 93.5842 97.0435Z" fill="#C7C6C4"/>
<path d="M86.7573 103.976C86.7516 103.976 86.7466 103.976 86.7415 103.976C86.7402 103.976 86.7389 103.976 86.7383 103.976C86.7332 103.976 86.7282 103.976 86.7231 103.976C86.7218 103.976 86.7206 103.976 86.7206 103.976C86.7155 103.976 86.7111 103.976 86.706 103.976C86.7054 103.976 86.7047 103.976 86.7041 103.976C86.6984 103.976 86.6933 103.976 86.6889 103.975C86.6876 103.975 86.6864 103.975 86.6851 103.975C86.6743 103.975 86.6642 103.975 86.6534 103.975C86.6521 103.975 86.6515 103.975 86.6509 103.975C86.6452 103.974 86.6401 103.974 86.635 103.974C86.635 103.974 86.6344 103.974 86.6337 103.974C86.628 103.974 86.6236 103.974 86.6185 103.974C86.6179 103.974 86.6173 103.974 86.616 103.974C86.6109 103.974 86.6052 103.974 86.6002 103.974C86.5995 103.974 86.5989 103.974 86.5983 103.974C86.5875 103.974 86.5767 103.973 86.5659 103.973C86.5653 103.972 86.5647 103.972 86.564 103.972C85.1407 103.933 83.8238 103.455 82.7458 102.669C82.0658 101.737 81.6165 100.627 81.4821 99.4229C82.3047 101.322 84.1248 102.694 86.2782 102.872C86.8822 103.158 87.5558 103.319 88.2675 103.319C90.8379 103.319 92.928 101.228 92.928 98.6579C92.928 97.9463 92.7683 97.2726 92.4818 96.6687C92.3031 94.5152 90.9317 92.6952 89.0312 91.8726C90.2359 92.0069 91.3462 92.4562 92.2784 93.1356C93.0649 94.2142 93.5427 95.5311 93.582 96.9545V96.9551C93.5826 96.9665 93.5826 96.9779 93.5826 96.9893C93.5826 96.99 93.5826 96.99 93.5826 96.9906C93.5826 96.9957 93.5826 97.0007 93.5833 97.0071C93.5833 97.0071 93.5833 97.0077 93.5833 97.0083C93.5833 97.014 93.5833 97.0191 93.5833 97.0242V97.0248C93.5833 97.0305 93.5833 97.0356 93.5839 97.0413C93.5839 97.0419 93.5839 97.0432 93.5839 97.0438C93.5839 97.054 93.5839 97.0647 93.5839 97.0755C93.5839 97.0768 93.5839 97.0774 93.5839 97.0781C93.5839 97.0838 93.5845 97.0888 93.5845 97.0939C93.5845 97.0945 93.5845 97.0952 93.5845 97.0964C93.5845 97.1009 93.5845 97.1059 93.5845 97.1104C93.5845 97.111 93.5845 97.1123 93.5845 97.1129C93.5845 97.118 93.5845 97.123 93.5845 97.1288C93.5845 97.1294 93.5845 97.1306 93.5845 97.1313C93.5845 97.137 93.5845 97.1421 93.5845 97.1471C93.5845 100.912 90.5223 103.976 86.7573 103.976Z" fill="#BFBEBC"/>
<path d="M88.2678 105.486C86.0005 105.486 83.988 104.375 82.746 102.669C83.824 103.454 85.141 103.933 86.5639 103.972C86.5645 103.972 86.5652 103.972 86.5658 103.973C86.577 103.973 86.5877 103.973 86.599 103.973C86.599 103.973 86.5996 103.973 86.6002 103.973C86.6058 103.973 86.6109 103.973 86.6165 103.974C86.6171 103.974 86.6177 103.974 86.6184 103.974C86.624 103.974 86.6284 103.974 86.634 103.974C86.6346 103.974 86.6353 103.974 86.6353 103.974C86.6403 103.974 86.6453 103.974 86.6509 103.975C86.6522 103.975 86.6534 103.975 86.6534 103.975C86.6641 103.975 86.6747 103.975 86.6853 103.975C86.6866 103.975 86.6878 103.975 86.6891 103.975C86.6935 103.975 86.6991 103.975 86.7041 103.975C86.7047 103.975 86.706 103.975 86.7066 103.975C86.711 103.975 86.716 103.975 86.7204 103.975C86.721 103.975 86.7223 103.975 86.7235 103.975C86.7279 103.975 86.7335 103.975 86.7386 103.975C86.7392 103.975 86.7404 103.975 86.7417 103.975C86.7467 103.975 86.7523 103.975 86.7573 103.975C90.522 103.975 93.5849 100.912 93.5849 97.147C93.5849 97.142 93.5849 97.1364 93.5849 97.1313C93.5849 97.1301 93.5849 97.1288 93.5849 97.1282C93.5849 97.1232 93.5849 97.1176 93.5849 97.1126C93.5849 97.1119 93.5849 97.1113 93.5849 97.1101C93.5849 97.1057 93.5849 97.1007 93.5849 97.0963C93.5849 97.0957 93.5849 97.0944 93.5849 97.0938C93.5849 97.0888 93.5843 97.0831 93.5843 97.0781C93.5843 97.0775 93.5843 97.0763 93.5843 97.075C93.5843 97.0644 93.5843 97.0537 93.5843 97.0437C93.5843 97.0425 93.5843 97.0418 93.5843 97.0412C93.5837 97.0356 93.5837 97.0299 93.5837 97.0249V97.0243C93.5837 97.0187 93.5837 97.0137 93.5837 97.008C93.5837 97.008 93.5837 97.0074 93.5837 97.0068C93.583 97.0005 93.5831 96.9955 93.5831 96.9905C93.5831 96.9899 93.5831 96.9899 93.5831 96.9892C93.5824 96.978 93.5824 96.9661 93.5818 96.9548V96.9542C93.543 95.5307 93.0647 94.2143 92.2785 93.1357C93.9849 94.3783 95.0954 96.3902 95.0954 98.6575C95.0954 102.423 92.0325 105.486 88.2678 105.486Z" fill="#BFBEBC"/>
<path d="M86.2785 102.872C84.1254 102.693 82.3046 101.322 81.4823 99.4224C81.4823 99.4217 81.4823 99.4217 81.4823 99.4217C81.4544 99.1707 81.4398 98.9158 81.4398 98.6578C81.4398 94.8931 84.5033 91.8296 88.2679 91.8296C88.526 91.8296 88.7809 91.8442 89.0319 91.8721C90.9314 92.6951 92.3033 94.5153 92.4821 96.6689C92.4815 96.6683 92.4815 96.667 92.4808 96.6664C92.0947 95.8524 91.4798 95.1676 90.7196 94.6953C90.007 94.2528 89.167 93.9966 88.2679 93.9966C85.6977 93.9966 83.6068 96.0876 83.6068 98.6578C83.6068 99.5568 83.8629 100.397 84.3061 101.109C84.7778 101.87 85.4625 102.485 86.2766 102.871C86.2772 102.871 86.2778 102.872 86.2785 102.872Z" fill="#DFDFDD"/>
<path d="M133.435 33.6352C131.306 34.5347 129.396 35.8227 127.755 37.464C126.115 39.1043 124.827 41.015 123.928 43.1439C122.996 45.3473 122.524 47.6891 122.524 50.1032V60.754H114.099V50.1298C114.099 35.63 125.895 23.8338 140.395 23.8338C148.028 23.8338 154.911 27.1027 159.719 32.3153C164.045 37.0042 166.691 43.2642 166.691 50.1298V60.754H158.265V50.1032C158.265 47.6891 157.794 45.3473 156.863 43.1439C156.1 41.3418 155.061 39.6962 153.765 38.2389C153.53 37.9739 153.286 37.7152 153.034 37.464C151.394 35.8227 149.483 34.5347 147.354 33.6352C145.15 32.7038 142.809 32.2323 140.395 32.2323C137.98 32.2323 135.639 32.7038 133.435 33.6352ZM161.252 30.7825C156.051 25.1782 148.626 21.6666 140.395 21.6666C124.699 21.6666 111.932 34.4357 111.932 50.1298V62.0654H124.691V50.1032C124.691 47.9807 125.106 45.9232 125.923 43.9869C126.713 42.1178 127.846 40.4381 129.287 38.9958C130.729 37.5534 132.409 36.4219 134.279 35.6321C136.214 34.8136 138.272 34.3995 140.395 34.3995C142.517 34.3995 144.576 34.8136 146.511 35.6321C148.381 36.4219 150.06 37.5534 151.502 38.9958C151.755 39.2491 151.999 39.5088 152.232 39.776C153.331 41.0331 154.215 42.4456 154.867 43.9869C155.684 45.9232 156.098 47.9807 156.098 50.1032V62.0654H168.858V50.1298C168.858 42.666 165.971 35.8642 161.252 30.7825ZM153.034 37.464C151.394 35.8227 149.483 34.5347 147.354 33.6352C145.15 32.7038 142.809 32.2323 140.395 32.2323C137.98 32.2323 135.639 32.7038 133.435 33.6352C131.306 34.5347 129.396 35.8227 127.755 37.464C126.115 39.1043 124.827 41.015 123.928 43.1439C122.996 45.3473 122.524 47.6891 122.524 50.1032V59.8982H124.034V51.6137C124.034 49.1995 124.507 46.8577 125.438 44.6543C126.337 42.5254 127.625 40.6148 129.266 38.9745C130.906 37.3331 132.817 36.0451 134.946 35.1457C137.149 34.2143 139.491 33.7427 141.905 33.7427C143.122 33.7427 144.319 33.863 145.491 34.1015C146.644 34.3346 147.771 34.6837 148.864 35.1457C150.664 35.9057 152.309 36.9446 153.765 38.2389C153.53 37.9739 153.286 37.7152 153.034 37.464Z" fill="#2E2D2D"/>
<path d="M136.829 103.055H143.959V117.613H136.829V103.055ZM143.959 100.888V101.743H134.662V103.91H135.518V118.925H146.126V100.888H143.959Z" fill="#2E2D2D"/>
<path d="M143.959 90.4187H136.829V75.8529H143.959V90.4187ZM135.518 74.5404V89.5635H134.662V91.7304H143.959V92.5857H146.126V74.5404H135.518Z" fill="#2E2D2D"/>
<path d="M102.594 131.123C101.014 130.016 99.9784 128.181 99.9784 126.109V114.21L100.217 114.114C101.674 113.529 103.058 112.751 104.332 111.8C105.858 110.662 107.192 109.299 108.298 107.75C109.271 106.387 110.05 104.901 110.614 103.333L110.704 103.081H120.521C120.697 103.081 120.862 103.012 120.986 102.889L125.243 98.6313L125.826 99.2147L129.474 102.862C129.598 102.986 129.762 103.055 129.938 103.055H135.518V118.925H146.149V74.5403H135.518V90.4181H110.41L110.313 90.1829C109.703 88.7021 108.896 87.3056 107.917 86.0291C106.801 84.5771 105.479 83.3028 103.987 82.243C102.813 81.4092 101.544 80.716 100.217 80.1831L99.9784 80.0866V68.186C99.9784 64.8116 102.724 62.0657 106.097 62.0657H174.692C176.763 62.0657 178.598 63.1008 179.705 64.6822C180.402 65.6752 180.811 66.8839 180.811 68.186V126.109C180.811 129.483 178.065 132.228 174.692 132.228H106.097C104.795 132.228 103.587 131.819 102.594 131.123ZM181.254 63.1316C179.737 61.1661 177.36 59.899 174.692 59.899H106.097C101.529 59.899 97.8112 63.6163 97.8112 68.186V80.7725C101.047 81.6464 103.955 83.465 106.157 85.9624C107.517 87.5038 108.608 89.3039 109.341 91.3002C109.436 91.5569 109.683 91.7304 109.957 91.7304H137.686V76.7071H143.982V116.758H137.686V101.743H130.209L127.218 98.7509L125.707 97.2403C125.579 97.112 125.411 97.0482 125.243 97.0482C125.075 97.0482 124.907 97.112 124.779 97.2403L120.25 101.769H110.228C109.939 101.769 109.688 101.954 109.602 102.229C107.826 107.891 103.334 112.071 97.8112 113.536V126.109C97.8112 128.53 98.855 130.712 100.515 132.228C100.685 132.383 100.862 132.531 101.044 132.672C102.443 133.752 104.197 134.395 106.097 134.395H174.692C176.84 134.395 178.8 133.574 180.274 132.228C181.934 130.712 182.978 128.53 182.978 126.109V68.186C182.978 66.2852 182.334 64.5312 181.254 63.1316ZM137.686 116.758V103.253H136.602V102.826H129.76L125.987 99.0531L125.826 99.2147L129.474 102.862C129.598 102.986 129.762 103.055 129.938 103.055H135.518V118.925H137.029V117.613H143.959V116.758H137.686Z" fill="#2E2D2D"/>
<path d="M82.2104 109.865C78.6857 106.755 76.4588 102.207 76.4588 97.1471C76.4588 87.7969 84.0664 80.1893 93.4171 80.1893C94.9229 80.1893 96.3983 80.3911 97.8109 80.7731C101.046 81.6468 103.955 83.4654 106.157 85.9631C107.517 87.5038 108.607 89.304 109.341 91.3004C109.435 91.5575 109.683 91.7305 109.957 91.7305H143.959V101.743H130.209L127.217 98.7511L125.707 97.2408C125.579 97.1127 125.411 97.0486 125.242 97.0486C125.074 97.0486 124.907 97.1127 124.779 97.2408L120.25 101.769H110.227C109.939 101.769 109.688 101.954 109.602 102.229C107.825 107.891 103.334 112.072 97.8109 113.536C96.4039 113.909 94.9299 114.106 93.4171 114.106C89.1251 114.106 85.2004 112.503 82.2104 109.865ZM110.979 89.5635C110.157 87.6616 109.04 85.9359 107.695 84.4328C105.959 82.4916 103.843 80.9204 101.488 79.8209C100.996 79.5895 100.491 79.3797 99.9779 79.1915C99.7609 79.1114 99.5414 79.0354 99.3212 78.9641C99.1795 78.9168 99.0377 78.8728 98.8944 78.8296C98.5372 78.7222 98.1761 78.6245 97.8109 78.5373C96.3903 78.1993 94.917 78.0223 93.4171 78.0223C82.8716 78.0223 74.2917 86.6013 74.2917 97.1471C74.2917 102.804 76.7599 107.895 80.6758 111.399C84.0606 114.428 88.5277 116.273 93.4171 116.273C94.9229 116.273 96.3951 116.1 97.8109 115.77C98.1761 115.685 98.5372 115.589 98.8944 115.484C99.2604 115.376 99.6215 115.257 99.9779 115.127C105.125 113.263 109.298 109.241 111.303 103.936H121.148L121.782 103.302L125.242 99.8418L126.754 101.352L128.677 103.276L129.311 103.91H146.126V89.5635H110.979Z" fill="#2E2D2D"/>
<path d="M84.3062 101.109C82.9804 100.288 82.0959 98.8187 82.0959 97.1475C82.0959 94.5771 84.1872 92.4865 86.757 92.4865C88.4282 92.4865 89.8968 93.3709 90.7195 94.6954C91.1621 95.4081 91.4174 96.2482 91.4174 97.1475C91.4174 99.7174 89.3275 101.809 86.757 101.809C85.859 101.809 85.0183 101.553 84.3062 101.109ZM92.2788 93.1361C91.0366 91.4296 89.0245 90.3193 86.757 90.3193C82.9927 90.3193 79.9294 93.3825 79.9294 97.1475C79.9294 99.4144 81.0397 101.427 82.7456 102.669C83.8726 103.491 85.2595 103.975 86.757 103.975C90.522 103.975 93.5846 100.913 93.5846 97.1475C93.5846 95.65 93.0996 94.2625 92.2788 93.1361Z" fill="#2E2D2D"/>
<path d="M205.528 133.312C205.528 133.91 205.042 134.395 204.445 134.395H76.3443C75.7463 134.395 75.2607 133.91 75.2607 133.312C75.2607 132.713 75.7463 132.228 76.3443 132.228H204.445C205.042 132.228 205.528 132.713 205.528 133.312Z" fill="#2E2D2D"/>
<path d="M71.8739 134.395H66.9391C66.3407 134.395 65.8555 133.91 65.8555 133.312C65.8555 132.713 66.3407 132.228 66.9391 132.228H71.8739C72.4723 132.228 72.9574 132.713 72.9574 133.312C72.9574 133.91 72.4723 134.395 71.8739 134.395Z" fill="#2E2D2D"/>
<path d="M93.8326 129.085H88.8975C88.2995 129.085 87.8139 128.6 87.8139 128.001C87.8139 127.403 88.2995 126.918 88.8975 126.918H93.8326C94.4312 126.918 94.9161 127.403 94.9161 128.001C94.9161 128.6 94.4312 129.085 93.8326 129.085Z" fill="#2E2D2D"/>
<path d="M84.4269 129.085H79.4924C78.8938 129.085 78.4088 128.6 78.4088 128.001C78.4088 127.403 78.8938 126.918 79.4924 126.918H84.4269C85.0255 126.918 85.5104 127.403 85.5104 128.001C85.5104 128.6 85.0255 129.085 84.4269 129.085Z" fill="#2E2D2D"/>
<path d="M191.891 129.085H186.956C186.358 129.085 185.873 128.6 185.873 128.001C185.873 127.403 186.358 126.918 186.956 126.918H191.891C192.49 126.918 192.975 127.403 192.975 128.001C192.975 128.6 192.49 129.085 191.891 129.085Z" fill="#2E2D2D"/>
<path d="M201.296 129.085H196.361C195.763 129.085 195.279 128.6 195.279 128.001C195.279 127.403 195.763 126.918 196.361 126.918H201.296C201.895 126.918 202.38 127.403 202.38 128.001C202.38 128.6 201.895 129.085 201.296 129.085Z" fill="#2E2D2D"/>
<path d="M213.85 134.395H208.915C208.317 134.395 207.831 133.91 207.831 133.312C207.831 132.713 208.317 132.228 208.915 132.228H213.85C214.448 132.228 214.933 132.713 214.933 133.312C214.933 133.91 214.448 134.395 213.85 134.395Z" fill="#2E2D2D"/>
</svg>
