<svg width="26" height="28" viewBox="0 0 26 28" fill="none" xmlns="http://www.w3.org/2000/svg">
<path d="M17.9494 11.8366C18.3493 11.8307 18.9258 11.7549 19.0629 11.7418C19.0629 11.7418 19.7679 11.6739 20.4469 11.3717C21.7388 10.7966 22.4133 9.58571 22.4469 9.52371C23.1652 8.19489 23.1513 6.3108 21.9989 4.93913C20.5575 3.22357 18.0147 3.11831 16.4199 3.96219C15.2532 4.57962 14.7236 5.63634 14.6599 5.76795C14.578 5.93696 14.3665 6.40716 14.2662 7.96003V15.6325H17.3296V18.2972H14.3698L14.3804 20.3856C14.366 21.3352 14.0967 22.9412 13.1721 24.2512C12.9772 24.5274 11.4156 26.6657 8.53347 27.0997C5.64753 27.5343 2.41179 26.1133 1.04364 23.2948C-0.100224 20.9383 0.374463 18.2502 1.7612 16.4363C1.87935 16.2817 3.4001 14.3419 5.84274 13.8289C6.12486 13.7696 6.33882 13.7406 6.74141 13.6918C8.26793 13.5067 10.3971 13.5319 11.6774 13.4998L11.6918 16.1975C10.9073 16.2051 9.43454 16.1985 9.01096 16.1975C8.83802 16.197 8.38888 16.1887 7.73148 16.2127C7.3224 16.2276 7.07328 16.245 6.93622 16.2582C6.93622 16.2582 6.23116 16.326 5.55221 16.6282C4.26032 17.2033 3.58578 18.4142 3.55221 18.4762C2.83393 19.805 2.84787 21.6891 4.00022 23.0608C5.44159 24.7764 7.98437 24.8816 9.57921 24.0377C10.7459 23.4203 11.2755 22.3636 11.3392 22.232C11.4211 22.063 11.6326 21.5928 11.7328 20.0399L11.6293 9.56681C11.6227 8.95675 11.6144 7.90204 11.6187 7.61431C11.6331 6.66469 11.9024 5.05872 12.827 3.74872C13.0219 3.47253 14.5835 1.33427 17.4656 0.900274C20.3516 0.465637 23.5873 1.88658 24.9554 4.70514C26.0993 7.0616 25.6246 9.74976 24.238 11.5636C24.1197 11.7182 22.6101 13.6381 20.1675 14.1511C19.8854 14.2104 19.6664 14.2471 19.2511 14.2808C17.7436 14.4029 18.8545 14.3115 17.9578 14.3772L17.9494 11.8777" fill="#288CD5"/>
</svg>